<svg xmlns="http://www.w3.org/2000/svg" width="242.176" height="56.661" viewBox="0 0 242.176 56.661">
  <g id="Group_40369" data-name="Group 40369" transform="translate(-359.871 -401.075)">
    <g id="Group_1" data-name="Group 1" transform="translate(359.871 401.075)">
      <path id="Path_1" data-name="Path 1" d="M392.164,471.218a2.717,2.717,0,0,1,0,4.706l-14.109,8.146-14.109,8.146a2.717,2.717,0,0,1-4.076-2.353V457.28a2.717,2.717,0,0,1,4.076-2.353l14.109,8.146Z" transform="translate(-359.871 -435.922)" fill="#5b59a3"/>
      <path id="Path_2" data-name="Path 2" d="M425.007,422.44a2.717,2.717,0,0,1,0-4.706l14.109-8.146,14.108-8.146A2.717,2.717,0,0,1,457.3,403.8v32.583a2.717,2.717,0,0,1-4.076,2.353l-14.109-8.146Z" transform="translate(-401.426 -401.075)" fill="#9a99f6"/>
      <circle id="Ellipse_1" data-name="Ellipse 1" cx="6.984" cy="6.984" r="6.984" transform="translate(0 0)" fill="#5b59a3"/>
      <circle id="Ellipse_2" data-name="Ellipse 2" cx="6.984" cy="6.984" r="6.984" transform="translate(41.906 42.692)" fill="#9a99f6"/>
    </g>
    <g id="Group_3" data-name="Group 3" transform="translate(430.412 409.887)">
      <g id="Group_2" data-name="Group 2" transform="translate(0)">
        <path id="Path_3" data-name="Path 3" d="M564.58,426.365a2.177,2.177,0,0,1,2.189,2.19V442.22h14.772V428.555a2.177,2.177,0,0,1,2.189-2.19h.072a2.177,2.177,0,0,1,2.189,2.19v31.757a2.053,2.053,0,0,1-.65,1.54,2.1,2.1,0,0,1-1.54.65h-.072a2.1,2.1,0,0,1-1.54-.65,2.052,2.052,0,0,1-.649-1.54V446.647H566.769v13.665a2.054,2.054,0,0,1-.649,1.54,2.105,2.105,0,0,1-1.54.65h-.072a2.1,2.1,0,0,1-1.54-.65,2.051,2.051,0,0,1-.65-1.54V428.555a2.178,2.178,0,0,1,2.19-2.19Z" transform="translate(-562.318 -426.365)" fill="#5b59a3"/>
        <path id="Path_4" data-name="Path 4" d="M667.181,458.524a12.656,12.656,0,0,1,3.849,9.286v10.947a2.054,2.054,0,0,1-.649,1.54,2.105,2.105,0,0,1-1.54.65h-.072a2.1,2.1,0,0,1-1.54-.65,2.053,2.053,0,0,1-.649-1.54v-1.107a13.13,13.13,0,1,1,.6-19.126Zm-15.445,3.152a8.7,8.7,0,1,0,12.294,0,8.683,8.683,0,0,0-12.294,0Z" transform="translate(-616.033 -444.811)" fill="#5b59a3"/>
        <path id="Path_5" data-name="Path 5" d="M736.155,490.835a2.218,2.218,0,0,1-2.189-2.189V467.763a13.163,13.163,0,1,1,4.451,9.888v10.995a2.218,2.218,0,0,1-2.189,2.189ZM753.237,473.9a8.684,8.684,0,1,0-6.135,2.55A8.363,8.363,0,0,0,753.237,473.9Z" transform="translate(-674.156 -444.811)" fill="#5b59a3"/>
        <path id="Path_6" data-name="Path 6" d="M823.291,490.835a2.218,2.218,0,0,1-2.189-2.189V467.763a13.163,13.163,0,1,1,4.451,9.888v10.995a2.218,2.218,0,0,1-2.189,2.189ZM840.373,473.9a8.683,8.683,0,1,0-6.135,2.55A8.364,8.364,0,0,0,840.373,473.9Z" transform="translate(-730.93 -444.811)" fill="#5b59a3"/>
        <path id="Path_7" data-name="Path 7" d="M931.235,462.349a2.17,2.17,0,0,1-1.083,2.911q-3.369,1.515-8.854,3.994l-8.83,3.994a8.259,8.259,0,0,0,6.833,3.32,8.691,8.691,0,0,0,8.2-5.846,2.062,2.062,0,0,1,2.117-1.492,2.114,2.114,0,0,1,1.8.938,2.068,2.068,0,0,1,.265,2,12.65,12.65,0,0,1-4.715,6.3,12.825,12.825,0,0,1-7.675,2.478,13.136,13.136,0,1,1,7.169-24.13A12.847,12.847,0,0,1,931.235,462.349ZM919.3,459.174a8.693,8.693,0,0,0-8.589,9.984l15.229-6.881A8.276,8.276,0,0,0,919.3,459.174Z" transform="translate(-786.354 -444.811)" fill="#5b59a3"/>
        <path id="Path_8" data-name="Path 8" d="M996.717,478.757a2.052,2.052,0,0,1-.65,1.54,2.1,2.1,0,0,1-1.54.65h-.072a2.1,2.1,0,0,1-1.54-.65,2.054,2.054,0,0,1-.649-1.54V465.6a10.911,10.911,0,1,1,21.821,0v13.16a2.219,2.219,0,0,1-2.19,2.189h-.048a2.131,2.131,0,0,1-1.564-.65,2.053,2.053,0,0,1-.649-1.54V465.6a6.46,6.46,0,1,0-12.92,0Z" transform="translate(-842.453 -444.811)" fill="#5b59a3"/>
      </g>
    </g>
  </g>
</svg>
